<?xml version="1.0" standalone="no"?>
<!DOCTYPE svg PUBLIC "-//W3C//DTD SVG 20010904//EN"
 "http://www.w3.org/TR/2001/REC-SVG-20010904/DTD/svg10.dtd">
<svg version="1.0" xmlns="http://www.w3.org/2000/svg"
 width="192.000000pt" height="192.000000pt" viewBox="0 0 192.000000 192.000000"
 preserveAspectRatio="xMidYMid meet">

<g transform="translate(0.000000,192.000000) scale(0.100000,-0.100000)"
fill="#ffffff" stroke="none">
<path d="M830 1854 c-276 -53 -485 -189 -628 -407 -150 -232 -184 -545 -86
-806 93 -247 315 -457 570 -539 200 -65 443 -52 632 33 34 15 62 31 62 35 0 4
-61 89 -135 188 -74 100 -219 306 -322 459 l-188 277 -3 -264 c-1 -174 -6
-268 -13 -277 -15 -17 -73 -17 -88 1 -8 9 -11 116 -9 372 l3 359 51 3 51 3
145 -218 c79 -120 240 -363 357 -540 117 -178 219 -323 226 -323 6 0 45 28 86
63 403 344 428 950 55 1323 -115 116 -245 190 -411 236 -69 20 -295 33 -355
22z m448 -546 c9 -9 12 -97 12 -332 l0 -321 -55 82 -55 82 0 245 c0 186 3 246
13 249 23 10 73 7 85 -5z"/>
</g>
</svg>
